<svg width="86" height="86" viewBox="0 0 86 86" fill="none" xmlns="http://www.w3.org/2000/svg">
<rect width="85.4098" height="85.4098" fill="#F5F5F5"/>
<g clip-path="url(#clip0_3_156)">
<path fill-rule="evenodd" clip-rule="evenodd" d="M36.9734 21C32.6193 21 29.1175 24.653 29.1175 29.1282C29.1175 31.8488 30.4129 34.2652 32.404 35.7403C31.3778 36.5092 30.546 37.5077 29.9753 38.656C29.4045 39.8042 29.1108 41.0702 29.1175 42.3525C29.1175 45.0749 30.4129 47.4895 32.404 48.9646C31.3778 49.7334 30.546 50.732 29.9753 51.8803C29.4045 53.0285 29.1108 54.2945 29.1175 55.5767C29.1175 60.0519 32.6193 63.7049 36.9734 63.7049C41.3258 63.7049 44.8293 60.0519 44.8293 55.5767V48.7048C46.2054 49.8521 47.9399 50.4811 49.7315 50.4824C54.0856 50.4806 57.5874 46.8276 57.5874 42.3525C57.5874 39.63 56.2938 37.2154 54.3009 35.7403C55.3271 34.9715 56.1589 33.9729 56.7297 32.8247C57.3004 31.6764 57.5942 30.4104 57.5874 29.1282C57.5874 24.653 54.0856 21 49.7315 21H36.9734V21ZM32.0695 29.1282C32.0695 26.2972 34.2794 24.0303 36.9734 24.0303H41.8756V34.2261H36.9734C34.2794 34.2261 32.0695 31.9574 32.0695 29.1282V29.1282ZM49.7315 34.2243H44.8293V24.0285H49.7315C52.4273 24.0285 54.6355 26.2972 54.6355 29.1282C54.6355 31.9574 52.4273 34.2243 49.7315 34.2243ZM32.0712 42.3525C32.0712 39.5233 34.2812 37.2546 36.9752 37.2546H41.8774V47.4504H36.9734C34.2777 47.4504 32.0695 45.1817 32.0695 42.3525H32.0712ZM44.8293 42.3525C44.8293 39.5233 47.0393 37.2546 49.7333 37.2546C52.429 37.2546 54.6372 39.5215 54.6372 42.3525C54.6372 45.1817 52.429 47.4504 49.7333 47.4504C47.0393 47.4504 44.8311 45.1834 44.8311 42.3525H44.8293ZM32.0712 55.5767C32.0712 52.7475 34.2812 50.4806 36.9752 50.4806H41.8774V55.5767C41.8774 58.4077 39.6709 60.6747 36.9752 60.6747C34.2812 60.6747 32.0712 58.4077 32.0712 55.5767Z" fill="#121212"/>
</g>
<defs>
<clipPath id="clip0_3_156">
<rect width="42.7049" height="42.7049" fill="white" transform="translate(22 21)"/>
</clipPath>
</defs>
</svg>
