<svg width="86" height="86" viewBox="0 0 86 86" fill="none" xmlns="http://www.w3.org/2000/svg">
<rect width="85.4098" height="85.4098" fill="#4791FF"/>
<g clip-path="url(#clip0_3_150)">
<path d="M55.4601 23.7655C55.1145 23.7655 54.8841 23.812 54.6515 23.8696V23.905H54.6869C54.8486 24.2041 55.1145 24.4367 55.3205 24.7136C55.4822 25.026 55.6196 25.3472 55.7702 25.6596L55.8167 25.6131C56.0937 25.4159 56.2332 25.1057 56.2332 24.6317C56.118 24.4921 56.0937 24.3437 55.9917 24.2152C55.8766 24.018 55.6218 23.9161 55.4601 23.7655ZM24.0424 62.7396H21.3087C21.226 58.3883 20.9606 54.0425 20.5134 49.7135H20.4913L16.3265 62.7396H14.2374L10.1059 49.7135H10.0704C9.74935 54.0489 9.55727 58.3928 9.49444 62.7396H7.00221C7.13716 57.277 7.54158 51.8243 8.21399 46.4016H11.6056L15.5511 58.402H15.5733L19.5542 46.4016H22.7841C23.4997 52.3564 23.9272 57.8016 24.0535 62.7396H24.0424ZM35.9032 50.6838C34.7956 56.7294 33.318 61.1268 31.5081 63.8605C30.077 65.9717 28.5196 67.0329 26.8227 67.0329C26.3729 67.0329 25.8191 66.8933 25.1501 66.6164V65.1631C25.4846 65.2096 25.8656 65.2429 26.2932 65.2429C27.0885 65.2429 27.7243 65.0125 28.2094 64.5849C28.7854 64.0532 29.0756 63.4551 29.0756 62.7972C29.0756 62.3364 28.8563 61.4126 28.3955 60.0059L25.4071 50.6838H28.0965L30.2431 57.6532C30.7283 59.246 30.9365 60.3426 30.8435 60.9762C32.0309 57.8371 32.8505 54.3989 33.3135 50.6838H35.9032ZM72.3164 62.7396H64.5407V46.4016H67.1592V60.7325H72.3164V62.7396ZM62.5092 63.1339L59.5097 61.6563C59.7755 61.437 60.0281 61.1955 60.2607 60.9186C61.5411 59.4299 62.1769 57.2035 62.1769 54.2726C62.1769 48.8606 60.0546 46.1623 55.8079 46.1623C53.7299 46.1623 52.1039 46.8424 50.9386 48.2159C49.6692 49.7157 49.0224 51.931 49.0224 54.8508C49.0224 57.7241 49.5873 59.8242 50.7193 61.1733C51.7583 62.374 53.3156 62.9855 55.4047 62.9855C56.1778 62.9855 56.8934 62.8924 57.5403 62.6975L61.4525 64.9815L62.5247 63.1361L62.5092 63.1339ZM52.784 59.4631C52.1149 58.402 51.7915 56.694 51.7915 54.3391C51.7915 50.2208 53.0387 48.1672 55.542 48.1672C56.8469 48.1672 57.815 48.6634 58.4264 49.6448C59.0843 50.717 59.4188 52.4029 59.4188 54.7334C59.4188 58.8761 58.1605 60.9651 55.6683 60.9651C54.3524 60.9651 53.3954 60.4689 52.7729 59.4875L52.784 59.4631ZM47.8903 58.2181C47.8903 59.6027 47.383 60.7458 46.3551 61.6208C45.3405 62.5092 43.9892 62.9589 42.2701 62.9589C40.6662 62.9589 39.131 62.4516 37.6201 61.4347L38.3246 60.028C39.6161 60.6749 40.7814 60.9983 41.8447 60.9983C42.8261 60.9983 43.5993 60.779 44.1531 60.3515C44.7069 59.9128 45.0414 59.3014 45.0414 58.5282C45.0414 57.5579 44.3613 56.7272 43.1252 56.036C41.9821 55.4024 39.687 54.0976 39.687 54.0976C38.4398 53.1871 37.8284 52.2168 37.8284 50.6129C37.8284 49.2859 38.2891 48.2248 39.2129 47.4162C40.1478 46.5855 41.3352 46.1823 42.8128 46.1823C44.2829 46.1695 45.724 46.5911 46.9555 47.3941L46.3219 48.8008C45.332 48.3649 44.2643 48.1336 43.1828 48.1207C42.341 48.1207 41.6941 48.3289 41.2444 48.7321C40.7947 49.1353 40.5178 49.6426 40.5178 50.2784C40.5178 51.2487 41.2111 52.0795 42.4783 52.7928C43.6436 53.4264 45.9852 54.7666 45.9852 54.7666C47.2656 55.6661 47.9014 56.6364 47.9014 58.2159L47.8903 58.2181ZM75.5951 40.9231C74.0134 40.8877 72.7905 41.0494 71.7648 41.488C71.4768 41.6032 71.0027 41.6032 70.9562 41.9732C71.1179 42.1349 71.1401 42.3897 71.2797 42.6068C71.5211 42.9989 71.9265 43.5305 72.3076 43.8075C72.724 44.1309 73.1383 44.4543 73.5659 44.7312C74.339 45.2053 75.2052 45.4822 75.9651 45.9541C76.3926 46.231 76.8312 46.5877 77.2566 46.8779C77.4759 47.0285 77.6133 47.2944 77.8902 47.3852V47.3276C77.7506 47.1548 77.7174 46.9 77.5778 46.694C77.3806 46.4969 77.1857 46.3241 76.9885 46.1291C76.4108 45.3621 75.7181 44.6888 74.9349 44.1331C74.3014 43.7056 72.9168 43.1052 72.662 42.3786L72.6266 42.3321C73.0541 42.2966 73.5614 42.1349 73.9757 42.0197C74.6447 41.8469 75.2672 41.8801 75.9606 41.7073C76.2787 41.6248 76.5942 41.5324 76.9066 41.4304V41.2576C76.5499 40.901 76.2841 40.4158 75.9141 40.0813C74.8946 39.1893 73.8065 38.3789 72.6598 37.6577C72.0373 37.2546 71.2531 36.9998 70.5951 36.6653C70.3647 36.5501 69.9615 36.4925 69.8331 36.2953C69.4764 35.8567 69.2681 35.2918 69.0134 34.7712C68.4339 33.6449 67.8952 32.4981 67.3984 31.333C67.0418 30.5599 66.8335 29.7978 66.3949 29.0822C64.3634 25.7238 62.1481 23.6946 58.7565 21.6986C58.0298 21.2821 57.1526 21.1093 56.2288 20.89C55.7326 20.8678 55.2474 20.8324 54.7512 20.8102C54.4277 20.6707 54.1176 20.3029 53.8407 20.1168C52.7109 19.4013 49.8022 17.8661 48.9825 19.8975C48.4508 21.1891 49.7667 22.4474 50.2297 23.0942C50.5642 23.555 50.9918 24.0645 51.2332 24.5719C51.3728 24.9174 51.406 25.2763 51.5456 25.633C51.858 26.4992 52.157 27.4673 52.5735 28.2759C52.7928 28.6923 53.0232 29.1288 53.3001 29.4987C53.4619 29.718 53.7388 29.8111 53.7964 30.1677C53.5195 30.5709 53.4973 31.1602 53.3467 31.6454C52.6311 33.8828 52.908 36.6409 53.9116 38.2913C54.235 38.7876 54.9838 39.8731 55.9895 39.4566C56.8779 39.0999 56.6829 37.979 56.9355 36.9865C56.9931 36.745 56.9576 36.5944 57.075 36.4327V36.4792C57.363 37.033 57.6399 37.5647 57.8947 38.1185C58.4951 39.0888 59.5673 40.0924 60.4556 40.7614C60.9297 41.1181 61.2974 41.7317 61.8867 41.9488V41.8912H61.8402C61.7139 41.7184 61.5522 41.6364 61.3905 41.4991C61.0164 41.1285 60.6692 40.7317 60.3515 40.3117C59.5318 39.204 58.7941 37.9812 58.1473 36.7229C57.8356 36.1012 57.5511 35.4662 57.2944 34.8199C57.1792 34.5895 57.1792 34.2306 56.982 34.1154C56.6829 34.543 56.2443 34.9107 56.0361 35.4535C55.655 36.2953 55.6196 37.3454 55.4711 38.4309C55.4025 38.453 55.4357 38.4309 55.4025 38.4774C54.7689 38.3157 54.5496 37.6688 54.317 37.115C53.7166 35.7083 53.6236 33.4575 54.1331 31.8425C54.2727 31.426 54.8597 30.1234 54.6293 29.7313C54.5031 29.3503 54.1109 29.131 53.9027 28.8319C53.6369 28.462 53.371 27.9901 53.1872 27.5736C52.7131 26.466 52.4827 25.2431 51.9643 24.1354C51.7339 23.6281 51.3174 23.0965 50.9829 22.6246C50.6019 22.0929 50.1876 21.7141 49.8974 21.0894C49.7933 20.8701 49.6559 20.5134 49.8177 20.2808C49.8531 20.1191 49.9329 20.0615 50.0946 20.0149C50.3493 19.7956 51.087 20.0725 51.3418 20.1988C52.0684 20.4868 52.6798 20.7637 53.2913 21.1802C53.5682 21.3774 53.8673 21.7451 54.2261 21.8492H54.6426C55.2762 21.9888 55.9807 21.8847 56.5699 22.0685C57.62 22.4031 58.566 22.8882 59.4188 23.4177C62.0271 25.092 64.1482 27.424 65.5686 30.1788C65.81 30.6285 65.9142 31.045 66.1335 31.5169C66.5367 32.4983 67.0573 33.4774 67.4715 34.4123C67.8858 35.3472 68.2801 36.2931 68.8783 37.0662C69.1773 37.4827 70.3559 37.6998 70.8964 37.9081C71.2885 38.0919 71.8999 38.2537 72.2455 38.4619C72.9256 38.8784 73.5947 39.3502 74.2305 39.811C74.5539 40.0303 75.5353 40.5266 75.5929 40.9187L75.5951 40.9231Z" fill="#F5F5F5"/>
</g>
<defs>
<clipPath id="clip0_3_150">
<rect width="70.8902" height="70.8902" fill="white" transform="translate(7 7)"/>
</clipPath>
</defs>
</svg>
