<svg width="86" height="86" viewBox="0 0 86 86" fill="none" xmlns="http://www.w3.org/2000/svg">
<rect width="85.4098" height="85.4098" fill="#FECC1B"/>
<g clip-path="url(#clip0_3_155)">
<path d="M43.259 13C42.8815 13 42.4949 13.02 42.0956 13.049C31.8683 13.8603 34.5817 24.6847 34.4292 28.2947C34.2405 30.9318 33.7032 33.0208 31.8883 35.6035C29.7412 38.1463 26.7356 42.259 25.3091 46.5386C24.6393 48.5514 24.3163 50.6241 24.6194 52.5716C24.5052 52.6561 24.4116 52.7653 24.3453 52.891C23.721 53.5444 23.2563 54.3484 22.7463 54.9237C22.2654 55.4047 21.5757 55.5681 20.817 55.8893C20.062 56.2178 19.2199 56.5409 18.728 57.5427C18.5102 57.9983 18.3959 58.4883 18.4068 59.0001C18.4068 59.472 18.4739 59.9639 18.5393 60.2942C18.6826 61.2579 18.8224 62.0529 18.6336 62.6391C18.0293 64.2817 17.9639 65.4069 18.3795 66.2309C18.8024 67.044 19.6736 67.3653 20.6464 67.6883C22.6138 68.1693 25.2691 68.0169 27.369 69.1331C29.6069 70.2674 31.8865 70.7593 33.7014 70.2783C34.3275 70.1379 34.9144 69.8598 35.4195 69.4643C35.9246 69.0687 36.3353 68.5656 36.6217 67.9914C38.0392 67.9824 39.5982 67.3381 42.0865 67.1783C43.7781 67.035 45.8961 67.8299 48.3245 67.6593C48.3899 67.9914 48.4752 68.1403 48.6077 68.4724V68.4815C49.5515 70.3618 51.3011 71.213 53.1741 71.0714C55.0345 70.9208 57.02 69.7774 58.6263 67.9061C60.1581 66.0621 62.7008 65.2853 64.3833 64.2762C65.2254 63.7916 65.9061 63.1419 65.9532 62.2054C66.0095 61.2416 65.4723 60.2398 64.2327 58.8785V58.6408L64.2236 58.6317C63.808 58.1507 63.6192 57.3376 63.4014 56.3939C63.1927 55.4192 62.9658 54.4936 62.2108 53.8602C62.0583 53.7277 61.9077 53.6986 61.748 53.5389C61.6139 53.4444 61.4562 53.3891 61.2924 53.3792C62.3324 50.2865 61.9258 47.2156 60.8659 44.4442C59.5809 41.032 57.3213 38.0555 55.6098 36.0137C53.6805 33.5835 51.7911 31.2785 51.8292 27.8663C51.8946 22.6556 52.4046 13.0254 43.2554 13.0054L43.259 13ZM44.5349 21.2417H44.573C45.083 21.2417 45.5259 21.3942 45.9814 21.7154C46.4443 22.0439 46.7855 22.5195 47.0396 23.0095C47.2955 23.6338 47.4298 24.1148 47.4461 24.7573C47.4461 24.7119 47.4552 24.6629 47.4552 24.6176V24.8716C47.4552 24.8517 47.4461 24.8353 47.4461 24.8154L47.437 24.7573C47.437 25.3454 47.3154 25.9316 47.0795 26.4688C46.9674 26.7747 46.7896 27.0522 46.5586 27.2819C46.4933 27.2456 46.4261 27.2075 46.3499 27.1785C46.0958 27.0641 45.8689 27.0278 45.6602 26.859C45.4884 26.7902 45.3111 26.7362 45.1302 26.6975C45.2446 26.5577 45.4805 26.3762 45.5749 26.2165C45.6983 25.9134 45.7636 25.5831 45.7836 25.2437V25.1947C45.7888 24.8671 45.7372 24.541 45.6311 24.231C45.5277 23.9097 45.397 23.7464 45.1974 23.4269C44.9887 23.2654 44.7908 23.1057 44.544 23.1057H44.5077C44.2808 23.1057 44.0812 23.171 43.8743 23.4269C43.6472 23.6508 43.4783 23.9269 43.3824 24.231C43.2506 24.5359 43.1767 24.8627 43.1646 25.1947V25.2437C43.1646 25.4597 43.1846 25.6775 43.21 25.8953C42.7381 25.7356 42.1519 25.5631 41.7362 25.4034C41.7136 25.244 41.7009 25.0834 41.6981 24.9225V24.8735C41.6798 24.2343 41.8031 23.599 42.0593 23.0131C42.2571 22.4832 42.6165 22.0276 43.0993 21.7263C43.5131 21.416 44.014 21.2454 44.5349 21.2454V21.2417ZM37.3695 21.3851H37.4548C37.796 21.3851 38.1081 21.4995 38.4203 21.7064C38.7779 22.0185 39.0646 22.4051 39.2534 22.8298C39.4712 23.3144 39.5928 23.8045 39.6309 24.4469V24.456C39.64 24.7773 39.64 24.9497 39.6218 25.1003V25.2982L39.424 25.3544C39.0556 25.4869 38.7633 25.6757 38.4675 25.839C38.4965 25.6212 38.4965 25.4034 38.4766 25.1947V25.1566C38.4494 24.8372 38.3822 24.6756 38.2788 24.3526C38.2013 24.1041 38.0613 23.8798 37.8722 23.701C37.7533 23.595 37.5975 23.5402 37.4384 23.5485H37.3803C37.2116 23.5576 37.0682 23.6429 36.9375 23.8698C36.7775 24.0538 36.6758 24.2812 36.6453 24.5232C36.5781 24.7773 36.5582 25.0513 36.5872 25.3272V25.3544C36.6162 25.6866 36.6725 25.8481 36.785 26.1675C36.8581 26.4137 36.9952 26.6361 37.1825 26.8118C37.2116 26.8409 37.2315 26.8608 37.2678 26.8681C37.099 27.0115 36.9847 27.0405 36.8449 27.2002C36.7487 27.2674 36.6471 27.3527 36.5237 27.3727C36.272 27.0699 36.0501 26.7435 35.8612 26.398C35.6297 25.8893 35.5013 25.3396 35.4837 24.7809C35.4471 24.2348 35.511 23.6867 35.6725 23.1638C35.8158 22.6919 36.0427 22.2472 36.3622 21.8697C36.6743 21.5485 36.9865 21.3887 37.3731 21.3887L37.3695 21.3851ZM40.6872 25.516C41.4912 25.516 42.4568 25.6666 43.6274 26.4797C44.3371 26.9643 44.8961 27.1331 46.1811 27.605C46.8054 27.9371 47.163 28.2584 47.3427 28.5796V28.2584C47.4288 28.4337 47.4768 28.6253 47.4834 28.8205C47.49 29.0158 47.455 29.2102 47.3808 29.3909C47.0777 30.1477 46.1321 30.9518 44.8017 31.4327V31.4418C44.1574 31.763 43.5911 32.2458 42.9287 32.5671C42.259 32.8883 41.5003 33.2767 40.4803 33.2114C40.1109 33.2276 39.7418 33.1728 39.3931 33.0499C39.1243 32.9071 38.8654 32.7464 38.6181 32.5689C38.1463 32.2476 37.7397 31.7649 37.1353 31.4436V31.4345H37.1263C36.1516 30.8392 35.6325 30.1949 35.4619 29.714C35.3022 29.0624 35.4529 28.5814 35.9356 28.2602C36.4729 27.9389 36.8504 27.6068 37.0972 27.4471C37.3513 27.2674 37.4475 27.2002 37.5237 27.1349H37.5328V27.1258C37.9394 26.634 38.58 25.9915 39.5656 25.6684C39.8941 25.5831 40.2752 25.5178 40.689 25.5178L40.6872 25.516ZM47.4552 30.694C48.3264 34.1261 50.3591 39.1082 51.6641 41.5185C52.3538 42.8125 53.7331 45.535 54.3284 48.8364C54.7059 48.8273 55.1216 48.8817 55.5681 48.9961C57.1362 44.9505 54.254 40.6019 52.94 39.3913C52.4009 38.9104 52.3737 38.5873 52.6369 38.5873C54.0653 39.8723 55.9347 42.3896 56.6153 45.2518C56.9275 46.5459 57.0055 47.9289 56.6734 49.2974C56.8331 49.3627 56.9946 49.448 57.1652 49.4571C59.6608 50.7548 60.5864 51.7276 60.1417 53.1814V53.0779C60.002 53.0707 59.8495 53.0779 59.708 53.0779H59.6699C60.0401 51.9454 59.227 51.0742 57.0908 50.1105C54.8784 49.1467 53.1106 49.2974 52.8075 51.2357C52.7861 51.3452 52.774 51.4563 52.7712 51.5679C52.5988 51.6241 52.43 51.6895 52.2612 51.7185C51.2212 52.3719 50.6622 53.3447 50.3428 54.5934C50.0306 55.8875 49.9362 57.3903 49.8509 59.1217C49.7929 59.9348 49.4353 61.1527 49.0741 62.3905C45.4442 64.9895 40.4059 66.1148 36.1353 63.2036C35.8594 62.7317 35.5382 62.2961 35.1607 61.9095C34.9794 61.6091 34.7536 61.338 34.4909 61.1055C34.9338 61.1055 35.3131 61.0311 35.6162 60.944C35.9624 60.7772 36.2346 60.4882 36.3803 60.1327C36.6362 59.4884 36.3803 58.4484 35.5382 57.314C34.7087 56.1906 33.2894 54.9129 31.2186 53.6387C29.6885 52.675 28.8283 51.5316 28.4308 50.2629C28.0333 48.9689 28.0896 47.6349 28.3927 46.2845C28.988 43.6946 30.5107 41.1718 31.4854 39.591C31.7395 39.4403 31.5707 39.9231 30.4926 41.9559C29.5361 43.7708 27.732 47.996 30.1967 51.2757C30.2915 48.8804 30.8235 46.5227 31.7667 44.3189C33.1261 41.2281 35.9828 35.8413 36.2097 31.5688C36.324 31.6632 36.7306 31.901 36.9085 32.0607C37.4293 32.3819 37.825 32.8647 38.3368 33.186C38.8468 33.6669 39.4893 33.9991 40.4549 33.9991C40.5493 34.0082 40.6346 34.0082 40.7181 34.0082C41.7108 34.0082 42.4876 33.6869 43.1283 33.3638C43.8271 33.0317 44.397 32.5507 44.9233 32.391H44.9324C46.0577 32.0698 46.9561 31.4164 47.457 30.6977L47.4552 30.694ZM52.7494 52.3719C52.8438 53.8257 53.5825 55.3866 54.8856 55.706C56.3031 56.0272 58.354 54.902 59.2143 53.8547L59.7243 53.8348C60.4884 53.8148 61.1236 53.8547 61.7734 54.4791L61.7825 54.4881C62.2834 54.9691 62.5212 55.7731 62.7281 56.6062C62.9368 57.579 63.0965 58.4956 63.7208 59.1853C64.8915 60.4612 65.2799 61.3777 65.2617 61.9458C65.2236 62.5774 64.8062 62.8987 64.0512 63.3814C62.5284 64.3561 59.8259 65.102 58.1054 67.1838C56.6098 68.9697 54.7876 69.9425 53.1777 70.0659C51.5715 70.1984 50.1813 69.585 49.3681 67.8934L49.3591 67.8844C48.8491 66.9188 49.0669 65.4069 49.4916 63.7989C49.9181 62.1818 50.5315 60.5392 50.6168 59.2052C50.7021 57.4756 50.7965 55.9728 51.0797 54.8076C51.3719 53.6823 51.8274 52.8783 52.6405 52.4354L52.744 52.3773L52.7494 52.3719ZM26.5741 52.4935H26.6031C26.7356 52.4935 26.859 52.5026 26.9806 52.5316C27.8881 52.6641 28.6921 53.3357 29.458 54.3466L31.6596 58.374L31.6687 58.383C32.2549 59.668 33.4927 60.953 34.5417 62.3451C35.5926 63.7898 36.4057 65.0839 36.3113 66.1438V66.1638C36.168 67.9588 35.1479 68.9316 33.5889 69.2928C32.028 69.614 29.91 69.2928 27.7937 68.1675C25.4506 66.8734 22.661 67.0331 20.8751 66.7101C19.9876 66.5504 19.4014 66.2182 19.1255 65.7373C18.8623 65.2563 18.8514 64.2799 19.4286 62.7589V62.7517C19.7117 61.9386 19.5066 60.9276 19.3632 60.0383C19.2308 59.0727 19.1654 58.325 19.4667 57.7678C19.8533 56.9547 20.4304 56.804 21.1383 56.4737C21.8479 56.1525 22.6901 55.9927 23.3507 55.3394H23.3598V55.3303C23.9751 54.6896 24.4397 53.8856 24.9769 53.3066C25.4325 52.8148 25.8935 52.4935 26.5741 52.4935V52.4935ZM43.9033 30.5343C42.8524 31.0153 41.6146 31.8284 40.3006 31.8284C38.9866 31.8284 37.9557 31.1877 37.2097 30.7031C36.8322 30.3746 36.5291 30.0515 36.3023 29.89C35.9048 29.5706 35.952 29.0787 36.1226 29.0787C36.3857 29.115 36.4348 29.4072 36.6035 29.5706C36.8413 29.7303 37.1244 30.0515 37.4729 30.3746C38.1826 30.8556 39.1282 31.5071 40.2988 31.5071C41.4731 31.5071 42.8524 30.8556 43.6837 30.3746C44.1556 30.0534 44.76 29.5706 45.2518 29.2493C45.6293 28.9172 45.613 28.5959 45.9215 28.5959C46.2337 28.6341 46.0087 28.9172 45.5731 29.4C45.1284 29.7321 44.4478 30.2131 43.9015 30.5343H43.9033ZM41.2843 26.6975V26.6521C41.2752 26.6031 41.3115 26.5487 41.3587 26.5287C41.5275 26.4253 41.7925 26.4616 41.9831 26.5378C42.1337 26.5378 42.3697 26.6975 42.3515 26.8663C42.3316 26.9806 42.1428 27.0278 42.0194 27.0278C41.8887 27.0278 41.7925 26.9244 41.68 26.859C41.5566 26.8209 41.3188 26.8391 41.2825 26.6975H41.2843ZM39.9503 26.6975C39.9013 26.8409 39.6745 26.8209 39.5529 26.859C39.4385 26.9244 39.3441 27.0278 39.2116 27.0278C39.0882 27.0278 38.8904 26.9788 38.8795 26.859C38.8632 26.6975 39.0882 26.5378 39.2407 26.5378C39.4385 26.4597 39.6835 26.4234 39.8723 26.5287C39.9104 26.5487 39.9594 26.6031 39.9394 26.6521V26.6975H39.9503Z" fill="#121212"/>
</g>
<defs>
<clipPath id="clip0_3_155">
<rect width="58.0787" height="58.0787" fill="white" transform="translate(13 13)"/>
</clipPath>
</defs>
</svg>
