<svg width="86" height="86" viewBox="0 0 86 86" fill="none" xmlns="http://www.w3.org/2000/svg">
<rect width="85.4098" height="85.4098" fill="#F25373"/>
<g clip-path="url(#clip0_3_152)">
<path d="M68.8526 27.3673C68.8697 27.439 68.8799 27.5193 68.8799 27.5893V39.3247C68.8803 39.4744 68.841 39.6216 68.766 39.7513C68.691 39.8809 68.5829 39.9883 68.4529 40.0626L58.6034 45.7389V56.9755C58.6038 57.1252 58.5645 57.2724 58.4895 57.4021C58.4145 57.5317 58.3064 57.6391 58.1764 57.7134L37.6165 69.5461C37.5685 69.5727 37.5175 69.5933 37.4645 69.6076L37.4115 69.6349C37.2686 69.6708 37.1189 69.6708 36.9759 69.6349C36.9544 69.6285 36.9337 69.6193 36.9145 69.6076C36.8651 69.5923 36.8176 69.5717 36.7727 69.5461L16.2214 57.7134C16.0904 57.6394 15.9812 57.5323 15.9048 57.4027C15.8283 57.2732 15.7873 57.1259 15.7858 56.9755V21.7712C15.7858 21.6995 15.8028 21.6192 15.8216 21.5492C15.8302 21.5218 15.8387 21.5048 15.849 21.4774L15.9019 21.3442C15.9105 21.3169 15.9378 21.2998 15.9549 21.2724L16.0352 21.1648C16.0639 21.1471 16.0908 21.1265 16.1154 21.1033C16.1513 21.076 16.1769 21.0504 16.2128 21.0316L26.4893 15.1144C26.6193 15.0398 26.7665 15.0005 26.9164 15.0005C27.0662 15.0005 27.2135 15.0398 27.3434 15.1144L37.6285 21.0316C37.6643 21.0487 37.69 21.076 37.7173 21.1033L37.8061 21.1648C37.8324 21.1991 37.8564 21.235 37.8779 21.2724C37.895 21.2895 37.9223 21.3169 37.9394 21.3442L37.9923 21.4774C38.0009 21.5048 38.0197 21.5218 38.0197 21.5492C38.0455 21.6203 38.0577 21.6956 38.0555 21.7712V43.7557L46.6136 38.8276V27.5911C46.6168 27.4901 46.6382 27.3906 46.6768 27.2972L46.7298 27.164C46.7468 27.1281 46.7742 27.1111 46.7912 27.0837C46.8186 27.0479 46.8357 27.012 46.863 26.9864C46.8903 26.9607 46.9245 26.9419 46.9518 26.9249C46.9775 26.8964 47.0074 26.8722 47.0406 26.8531L57.3257 20.9359C57.4542 20.8571 57.602 20.8153 57.7527 20.8153C57.9035 20.8153 58.0513 20.8571 58.1798 20.9359L68.4563 26.8531C68.4922 26.8702 68.5178 26.8975 68.5537 26.9249C68.581 26.9419 68.6066 26.9607 68.634 26.9864C68.6613 27.012 68.6869 27.0479 68.7142 27.0837C68.7313 27.1111 68.7587 27.1281 68.7672 27.164C68.7945 27.2084 68.8031 27.2528 68.8201 27.2972C68.8372 27.3143 68.8475 27.3417 68.856 27.369L68.8526 27.3673ZM67.1615 38.8259V29.0755L63.5674 31.139L58.6034 34.0036V43.754L67.1615 38.8259ZM56.8952 56.4767V46.716L52.0012 49.5004L38.0504 57.4725V67.322L56.8952 56.4767ZM17.4905 23.2557V56.4767L36.3337 67.322V57.4725L26.4842 51.8936C26.4483 51.8765 26.4227 51.8492 26.3954 51.8218C26.368 51.8047 26.3339 51.786 26.3151 51.7603H26.3065C26.2792 51.733 26.2621 51.6988 26.2348 51.6715C26.2177 51.6442 26.1904 51.6186 26.1733 51.5827C26.1534 51.5491 26.1385 51.5129 26.1289 51.4751C26.1118 51.4392 26.093 51.4136 26.0845 51.3777C26.0759 51.3418 26.0674 51.2974 26.0674 51.253C26.0589 51.2171 26.0503 51.1915 26.0503 51.1556V28.1838L21.0863 25.3192L17.4905 23.2557ZM26.913 16.8414L18.3549 21.7695L26.913 26.6977L35.471 21.7695L26.913 16.8414ZM31.3696 47.6077L36.3337 44.7431V23.2574L32.7396 25.3209L27.7671 28.1855V49.6712L31.3696 47.6077ZM57.7493 22.6595L49.181 27.5876L57.7493 32.5158L66.3074 27.5876L57.7493 22.6595ZM56.8952 34.0036L48.3269 29.0755V38.8259L53.2909 41.6905L56.8935 43.754L56.8952 34.0036ZM37.1895 55.9881L56.024 45.2401L47.4745 40.312L28.6485 51.1488L37.1895 55.9881Z" fill="#F5F5F5"/>
</g>
<defs>
<clipPath id="clip0_3_152">
<rect width="54.6623" height="54.6623" fill="white" transform="translate(15 15)"/>
</clipPath>
</defs>
</svg>
