<svg width="86" height="86" viewBox="0 0 86 86" fill="none" xmlns="http://www.w3.org/2000/svg">
<rect width="85.4098" height="85.4098" fill="#4FA332"/>
<g clip-path="url(#clip0_3_154)">
<path fill-rule="evenodd" clip-rule="evenodd" d="M50.0956 15H40.4358V28.7218C38.9947 28.3748 37.7987 28.2592 36.235 28.2592C26.1403 28.2569 19.6264 34.211 19.6264 43.3897C19.6264 52.9154 25.7679 57.8772 37.5651 57.8887C41.5045 57.8887 45.1477 57.5417 50.0956 56.6627V15V15ZM37.5165 35.7654C38.7101 35.7654 39.6447 35.8811 40.7735 36.2281V50.6808C39.3948 50.8543 38.5251 50.9122 37.4564 50.9122C32.5062 50.9122 29.8113 48.2705 29.8113 43.4868C29.8113 38.5713 32.6334 35.7654 37.5165 35.7654Z" fill="#F5F5F5"/>
<path d="M65.89 50.2367V29.3765H56.2441V47.1301C56.2441 54.9649 55.8092 57.942 54.4282 60.5142C53.1097 63.0287 51.0463 64.678 46.7831 66.5424L55.7467 70.5164C60.0099 68.5225 62.0733 66.7159 63.6393 63.8545C65.3187 60.8751 65.89 57.4192 65.89 50.2367V50.2367Z" fill="#F5F5F5"/>
<path d="M64.9277 15H55.2725V24.2365H64.9301V15H64.9277Z" fill="#F5F5F5"/>
</g>
<defs>
<clipPath id="clip0_3_154">
<rect width="55.5164" height="55.5164" fill="white" transform="translate(15 15)"/>
</clipPath>
</defs>
</svg>
