<svg width="86" height="86" viewBox="0 0 86 86" fill="none" xmlns="http://www.w3.org/2000/svg">
<rect width="85.4098" height="85.4098" fill="#4FA332"/>
<path d="M42.9041 65.2906C42.2876 65.2906 41.7114 65.1247 41.1733 64.8377L35.705 61.5913C34.8867 61.1361 35.297 60.9702 35.5436 60.8873C36.6556 60.5173 36.8619 60.4366 38.012 59.782C38.1376 59.699 38.3013 59.7371 38.4268 59.8201L42.6194 62.3311C42.7853 62.4118 42.9915 62.4118 43.1149 62.3311L59.5241 52.8317C59.69 52.751 59.7707 52.5851 59.7707 52.3789V33.416C59.7707 33.2119 59.69 33.046 59.5241 32.9653L43.1149 23.5063C42.9512 23.4233 42.7449 23.4233 42.6194 23.5063L26.2056 32.9631C26.042 33.0438 25.959 33.2523 25.959 33.4137V52.3744C25.959 52.538 26.042 52.7466 26.2056 52.8273L30.6897 55.4213C33.1155 56.6499 34.6401 55.2083 34.6401 53.7734V35.0616C34.6401 34.815 34.8441 34.5661 35.1333 34.5661H37.2318C37.474 34.5661 37.7251 34.7724 37.7251 35.0616V53.7756C37.7251 57.0243 35.9584 58.9188 32.8734 58.9188C31.9272 58.9188 31.1874 58.9188 29.0889 57.8875L24.773 55.4235C24.2471 55.1178 23.8107 54.6795 23.5074 54.1523C23.2041 53.6251 23.0444 53.0275 23.0444 52.4192V33.4563C23.0444 32.2232 23.7013 31.0708 24.773 30.4543L41.1755 20.9549C41.708 20.6701 42.3025 20.5211 42.9064 20.5211C43.5102 20.5211 44.1047 20.6701 44.6372 20.9549L61.042 30.4543C62.1159 31.0686 62.7705 32.2232 62.7705 33.4563V52.4192C62.7705 53.6501 62.1136 54.8025 61.042 55.4235L44.6372 64.9207C44.0969 65.1673 43.4803 65.2906 42.9041 65.2906V65.2906ZM47.9621 52.2511C40.7652 52.2511 39.2855 48.9598 39.2855 46.1663C39.2855 45.9196 39.4918 45.6708 39.7788 45.6708H41.9176C42.1642 45.6708 42.3683 45.8344 42.3683 46.0833C42.6978 48.2603 43.6417 49.332 48.0047 49.332C51.4574 49.332 52.9416 48.5473 52.9416 46.6976C52.9416 45.6282 52.5268 44.848 47.1415 44.3144C42.6597 43.866 39.8639 42.8727 39.8639 39.2967C39.8639 35.9674 42.6597 33.9922 47.35 33.9922C52.612 33.9922 55.2038 35.8059 55.5311 39.7496C55.5272 39.8827 55.4834 40.0116 55.4055 40.1196C55.3226 40.2003 55.2015 40.2832 55.0782 40.2832H52.9416C52.836 40.281 52.7341 40.2436 52.6521 40.177C52.5701 40.1104 52.5126 40.0184 52.4887 39.9155C51.9932 37.6466 50.7198 36.9112 47.35 36.9112C43.5633 36.9112 43.1104 38.2273 43.1104 39.2138C43.1104 40.4043 43.6417 40.7742 48.7468 41.4334C53.8048 42.0903 56.1903 43.0364 56.1903 46.5765C56.1454 50.1974 53.1882 52.2511 47.9621 52.2511V52.2511Z" fill="#F5F5F5"/>
</svg>
