<svg width="86" height="86" viewBox="0 0 86 86" fill="none" xmlns="http://www.w3.org/2000/svg">
<rect width="85.4098" height="85.4098" fill="#FECC1B"/>
<path d="M30.1357 48.2666L33.5727 26.152C33.5979 25.9882 33.674 25.8365 33.7902 25.7184C33.9064 25.6002 34.0568 25.5216 34.2201 25.4936C34.3834 25.4657 34.5514 25.4898 34.7003 25.5625C34.8492 25.6353 34.9714 25.7531 35.0497 25.8991L38.7465 32.8376L30.1357 48.2666ZM54.5504 53.6323L51.2773 33.2806C51.2527 33.1381 51.1895 33.0051 51.0947 32.8961C50.9998 32.787 50.8769 32.7059 50.7393 32.6617C50.6017 32.6175 50.4546 32.6119 50.314 32.6453C50.1733 32.6788 50.0446 32.7501 49.9416 32.8516L29.3004 53.6323L40.7222 60.0686C41.4389 60.4696 42.3125 60.4696 43.0292 60.0686L54.5504 53.6323ZM45.2682 35.8718L42.6229 30.8096C42.5561 30.6825 42.4557 30.5761 42.3328 30.5019C42.2099 30.4277 42.069 30.3885 41.9254 30.3885C41.7818 30.3885 41.6409 30.4277 41.518 30.5019C41.3951 30.5761 41.2948 30.6825 41.2279 30.8096L29.6126 51.6252L45.2682 35.8718Z" fill="#121212"/>
</svg>
