<svg width="86" height="86" viewBox="0 0 86 86" fill="none" xmlns="http://www.w3.org/2000/svg">
<rect width="85.4098" height="85.4098" fill="#F25373"/>
<g clip-path="url(#clip0_3_157)">
<path fill-rule="evenodd" clip-rule="evenodd" d="M41.282 27.1953C42.0277 27.4208 42.8217 27.433 43.574 27.2305L55.956 49.1172C55.3827 49.6694 54.9799 50.3745 54.7953 51.1488H30.1762C29.9781 50.3359 29.542 49.6005 28.9236 49.0369L41.2801 27.1953H41.282ZM39.4793 26.0894C39.5146 26.1286 39.5537 26.1658 39.5909 26.2029L27.207 48.0954C27.1486 48.0798 27.0899 48.0654 27.0308 48.0524V36.9212C27.5939 36.7952 28.1245 36.5533 28.5889 36.2109C29.0533 35.8685 29.4412 35.4332 29.728 34.9325C30.0136 34.4348 30.194 33.8836 30.258 33.3133C30.322 32.743 30.2682 32.1656 30.0999 31.6169L39.4793 26.0914V26.0894ZM46.4669 24.4551C46.6653 23.8322 46.7147 23.1716 46.6113 22.5262C46.5078 21.8807 46.2543 21.2686 45.8711 20.7391C45.488 20.2095 44.9859 19.7772 44.4052 19.477C43.8246 19.1768 43.1816 19.0171 42.528 19.0107C41.8744 19.0043 41.2284 19.1514 40.642 19.4401C40.0555 19.7289 39.5451 20.1512 39.1516 20.6732C38.7581 21.1951 38.4927 21.8021 38.3766 22.4454C38.2605 23.0887 38.2969 23.7502 38.4831 24.3768L29.0978 29.9081C28.6474 29.4462 28.096 29.0951 27.4869 28.8823C26.8779 28.6696 26.2278 28.601 25.5877 28.682C24.9477 28.763 24.3352 28.9914 23.7983 29.3492C23.2615 29.7069 22.8149 30.1844 22.4938 30.7439C22.1731 31.3041 21.9858 31.9308 21.9465 32.5751C21.9073 33.2195 22.017 33.8642 22.2673 34.4593C22.5176 35.0543 22.9017 35.5837 23.3897 36.0062C23.8778 36.4288 24.4566 36.7332 25.0814 36.8957V48.0817C24.458 48.2459 23.8807 48.5513 23.3943 48.9743C22.9078 49.3973 22.5251 49.9265 22.2759 50.521C22.0267 51.1155 21.9177 51.7594 21.9571 52.4028C21.9966 53.0463 22.1836 53.672 22.5036 54.2316C22.8243 54.7898 23.2699 55.2661 23.8054 55.6233C24.341 55.9805 24.952 56.2088 25.5906 56.2903C26.2291 56.3718 26.8779 56.3044 27.4861 56.0932C28.0942 55.8821 28.6452 55.533 29.0958 55.0732L38.4811 60.6046C38.3689 60.9893 38.3122 61.388 38.3128 61.7888C38.3147 64.1043 40.1781 65.9755 42.4877 65.9755C43.1559 65.974 43.8141 65.8125 44.4072 65.5046C45.0002 65.1966 45.5109 64.7511 45.8964 64.2053C46.282 63.6595 46.5313 63.0294 46.6234 62.3675C46.7155 61.7056 46.6477 61.0314 46.4258 60.401L55.725 54.9206C56.1633 55.416 56.7133 55.7999 57.3295 56.0404C57.9457 56.281 58.6103 56.3714 59.2684 56.304C59.9264 56.2367 60.559 56.0136 61.1137 55.6532C61.6683 55.2928 62.1292 54.8055 62.4581 54.2316C62.7879 53.6628 62.979 53.0244 63.0159 52.3679C63.0529 51.7115 62.9346 51.0556 62.6708 50.4534C62.407 49.8513 62.005 49.3197 61.4974 48.9019C60.9898 48.484 60.3909 48.1917 59.7492 48.0485V36.931C60.3914 36.7875 60.991 36.4953 61.4996 36.0778C62.0082 35.6604 62.4117 35.1293 62.6776 34.5273C62.9434 33.9254 63.0642 33.2694 63.0301 32.6123C62.9961 31.9551 62.8082 31.3152 62.4816 30.7439C62.1566 30.1795 61.704 29.699 61.1601 29.3408C60.6161 28.9826 59.9959 28.7566 59.3491 28.6809C58.7022 28.6052 58.0466 28.6819 57.4346 28.9048C56.8227 29.1278 56.2714 29.4908 55.8248 29.9649L46.4689 24.4531L46.4669 24.4551ZM45.2945 26.2891L45.4413 26.1481L54.852 31.6932C54.6986 32.232 54.6547 32.7961 54.723 33.3521C54.7912 33.9082 54.9702 34.4449 55.2494 34.9306C55.5229 35.4101 55.8894 35.8302 56.3273 36.1663C56.7652 36.5024 57.2658 36.7477 57.7997 36.8879V48.0837C57.7486 48.0977 57.6977 48.1127 57.6471 48.1287L45.2945 26.2891V26.2891ZM54.8755 53.4135L45.5313 58.9213C45.1419 58.5045 44.671 58.1723 44.1477 57.9454C43.6244 57.7184 43.06 57.6016 42.4897 57.6021C41.3035 57.6021 40.2348 58.0953 39.4754 58.89L30.1097 53.3704C30.1332 53.2941 30.1547 53.2177 30.1723 53.1394H54.7992C54.8227 53.2314 54.8481 53.3234 54.8775 53.4135H54.8755Z" fill="#F5F5F5"/>
</g>
<defs>
<clipPath id="clip0_3_157">
<rect width="46.9754" height="46.9754" fill="white" transform="translate(19 19)"/>
</clipPath>
</defs>
</svg>
