<svg width="86" height="86" viewBox="0 0 86 86" fill="none" xmlns="http://www.w3.org/2000/svg">
<rect width="85.4098" height="85.4098" fill="#4FA332"/>
<g clip-path="url(#clip0_3_149)">
<path d="M53.237 37.9718C50.7229 26.8859 44.7831 23.2508 44.1449 21.8578C43.4439 20.8698 42.6891 19.0015 42.6891 19.0015C42.6816 19.0403 42.6816 19.0642 42.6741 19.1031V19.127C42.6741 19.1584 42.6666 19.1734 42.6666 19.2047V19.2361H42.6592V19.3363H42.6517C42.6517 19.3512 42.6517 19.3751 42.6442 19.3826V19.4289C42.6442 19.4439 42.6442 19.4603 42.6367 19.4678V19.5067C42.6367 19.5306 42.6367 19.553 42.6293 19.5694V19.5769C42.628 19.6112 42.6229 19.6453 42.6143 19.6786V19.6935C42.6068 19.701 42.6068 19.7084 42.6068 19.7174V19.7488H42.5994V19.7951H42.5919V19.8265H42.577V19.8729H42.5695V19.9117H42.562V19.9431H42.5545V19.9745H42.5471V20.0059H42.5396V20.0373H42.5321V20.0612H42.5246V20.0926H42.5172V20.124H42.5097C42.5022 20.124 42.5022 20.1314 42.5022 20.1314V20.1464L42.4947 20.1613C42.4947 20.1763 42.4873 20.1927 42.4798 20.2077C42.4723 20.2151 42.4723 20.2151 42.4723 20.2226V20.2376H42.4649V20.2525H42.4499V20.2914H42.435V20.3153H42.4275V20.3228H42.42V20.3377H42.4125V20.3616H42.4051V20.3766H42.3901V20.4005H42.3826V20.4154H42.3752V20.4304H42.3677V20.4543H42.3602V20.4692H42.3528V20.4767H42.3453V20.4917H42.3303V20.5156H42.3229V20.523H42.3154V20.538H42.3079V20.5619H42.3004V20.5694H42.293V20.5843H42.2855V20.5918H42.278V20.6157H42.2631V20.6232H42.2556V20.6381H42.2481V20.6456H42.2407V20.6606H42.2332V20.6755C42.2257 20.6755 42.2257 20.683 42.2257 20.683V20.6904H42.2182L42.1943 20.7293C42.1943 20.7293 42.1794 20.7443 42.1794 20.7532C42.1719 20.7532 42.1719 20.7607 42.1719 20.7607V20.7682H42.1644V20.7756H42.157V20.7906H42.142V20.7981H42.1345V20.8055H42.1271V20.828H42.1196V20.8354H42.1121V20.8429H42.1046V20.8578H42.0972V20.8429H42.0822V20.8504H42.0747V20.8653H42.0673V20.8803H42.0598V20.8877H42.0523V20.8952H42.0449V20.9027H42.0374V20.9176H42.0224V20.9251H42.015V20.9401H42.0075V20.9475H42V20.955H41.9925V20.9789H41.9851V20.9864H41.9776V20.9939H41.9701V21.0013H41.9626V21.0088H41.9477V21.0238H41.9402V21.0312H41.9328V21.0387H41.9253V21.0536H41.9178V21.0611H41.9029V21.0686H41.8954V21.0761H41.8879V21.091H41.8804V21.106H41.873V21.1134H41.8655V21.1209H41.8505V21.1284H41.8431V21.1359H41.8356V21.1508H41.8281V21.1583H41.8207V21.1732H41.8132V21.1807H41.8057V21.1882H41.7982V21.1956H41.7908V21.2031H41.7758V21.2106C41.7683 21.2106 41.7683 21.2181 41.7683 21.2181L41.7609 21.2255L41.7534 21.233V21.248H41.7459V21.2554H41.7384V21.2629H41.731V21.2704H41.7235L41.7086 21.2853V21.2928C41.6936 21.3003 41.6936 21.3077 41.6772 21.3242C41.6772 21.3242 41.6622 21.3391 41.6532 21.3391C41.6293 21.3541 41.5994 21.3855 41.5755 21.4094C41.5606 21.4169 41.5441 21.4333 41.5292 21.4408C41.4978 21.4722 41.4664 21.4946 41.435 21.5185C41.3887 21.5648 41.3409 21.5962 41.2871 21.6426H41.2796L40.9134 21.9624H40.9059C40.5711 22.2584 40.1735 22.6395 39.7221 23.0909L39.6833 23.1297C36.9734 25.9323 32.7002 31.7779 32.2562 41.2213C32.2099 42 32.2174 42.7623 32.2637 43.5021V43.5171C32.4819 47.2388 33.6493 50.415 35.1126 52.9993C35.688 54.0276 36.3188 54.9618 36.957 55.8018C39.1527 58.6985 41.3947 60.4188 41.9626 60.8388C42.843 62.8701 42.7638 66.3736 42.7638 66.3736L44.0477 66.8011C44.0477 66.8011 43.7832 63.4142 44.1494 61.7715C44.2659 61.2648 44.5305 60.8299 44.8429 60.4562C45.0611 60.3082 45.6844 59.8568 46.4317 59.1723C46.4706 59.1334 46.4945 59.102 46.5259 59.0632C49.5541 56.2367 55.2144 49.2775 53.2758 37.9434L53.237 37.9718Z" fill="#F5F5F5"/>
</g>
<defs>
<clipPath id="clip0_3_149">
<rect width="47.8295" height="47.8295" fill="white" transform="translate(19 19)"/>
</clipPath>
</defs>
</svg>
