<svg width="86" height="86" viewBox="0 0 86 86" fill="none" xmlns="http://www.w3.org/2000/svg">
<rect width="85.4098" height="85.4098" fill="#4791FF"/>
<g clip-path="url(#clip0_3_151)">
<path d="M70.6623 41.6228C70.6623 38.0014 66.1276 34.5691 59.1741 32.4418C60.7798 25.3562 60.0669 19.7169 56.9238 17.9108C56.1623 17.4842 55.3003 17.2695 54.4276 17.289V19.7716C54.9401 19.7716 55.3523 19.874 55.6985 20.0631C57.2131 20.9331 57.8713 24.2402 57.3589 28.497C57.2359 29.5447 57.0354 30.6471 56.7895 31.7722C54.4609 31.2111 52.0976 30.8055 49.7153 30.5582C48.296 28.6002 46.7476 26.739 45.0803 24.9873C48.7131 21.6119 52.1227 19.7624 54.4413 19.7624V17.2776C51.3756 17.2776 47.3648 19.4618 43.3084 23.2494C39.2543 19.4869 35.2411 17.3231 32.1778 17.3231V19.8057C34.485 19.8057 37.9059 21.646 41.5387 24.9986C39.9785 26.6385 38.4184 28.497 36.9357 30.5582C34.5484 30.8028 32.1808 31.2122 29.8501 31.7836C29.5927 30.6699 29.4037 29.5903 29.2693 28.554C28.7454 24.2949 29.3923 20.9878 30.8978 20.1086C31.2303 19.9082 31.6653 19.8171 32.1778 19.8171V17.3345C31.2439 17.3345 30.3944 17.535 29.661 17.9563C26.5293 19.7624 25.8278 25.3881 27.4426 32.4532C20.5119 34.5941 16 38.0128 16 41.6228C16 45.2442 20.5347 48.6765 27.4882 50.8015C25.8825 57.8894 26.5954 63.5287 29.7385 65.3326C30.4627 65.7562 31.31 65.9566 32.2438 65.9566C35.3095 65.9566 39.3203 63.7724 43.3767 59.9848C47.4308 63.7497 51.4417 65.9111 54.5073 65.9111C55.3867 65.9297 56.2552 65.7143 57.0241 65.287C60.1557 63.4832 60.8572 57.8575 59.2424 50.7924C66.1504 48.6651 70.6623 45.2328 70.6623 41.6228ZM56.154 34.191C55.7212 35.6802 55.2196 37.1486 54.6508 38.5913C53.7196 36.7801 52.6972 35.0172 51.5874 33.3096C53.1704 33.5442 54.6964 33.8334 56.1563 34.191H56.154ZM51.0522 46.0573C50.1844 47.5605 49.2916 48.9886 48.3669 50.3141C45.024 50.6088 41.6618 50.6126 38.3182 50.3255C36.4003 47.586 34.7231 44.6856 33.3052 41.657C34.7209 38.6212 36.391 35.7106 38.2977 32.9566C41.6398 32.6613 45.0012 32.6567 48.3441 32.9429C49.2688 34.2685 50.173 35.6851 51.0408 37.1792C51.8881 38.6369 52.6579 40.1173 53.3594 41.6114C52.6501 43.1236 51.8804 44.6068 51.0522 46.0573V46.0573ZM54.6508 44.6087C55.2521 46.1006 55.7668 47.5947 56.1882 49.0432C54.7305 49.4008 53.1909 49.7014 51.5988 49.9338C52.704 48.2106 53.7226 46.4334 54.6508 44.6087V44.6087ZM43.3539 56.4978C42.3176 55.4273 41.2813 54.2361 40.2564 52.9311C41.2585 52.9766 42.2835 53.0108 43.3198 53.0108C44.3675 53.0108 45.4038 52.988 46.4173 52.9311C45.4151 54.2361 44.3788 55.4273 43.3539 56.4978ZM35.0635 49.9338C33.5278 49.7112 32.0032 49.4179 30.4946 49.0546C30.9069 47.6174 31.4193 46.1347 31.9978 44.6543C32.4556 45.5426 32.9362 46.4354 33.46 47.3282C33.9839 48.2187 34.5169 49.0888 35.0635 49.9338ZM43.297 26.7478C44.3333 27.8183 45.3696 29.0095 46.3945 30.3145C45.3924 30.269 44.3675 30.2348 43.3311 30.2348C42.2835 30.2348 41.2471 30.2576 40.2336 30.3145C41.2358 29.0095 42.2721 27.8183 43.297 26.7478ZM35.0521 33.3119C33.9472 35.0313 32.9286 36.8047 32.0001 38.6255C31.4153 37.1734 30.9022 35.6935 30.4627 34.191C31.9204 33.8448 33.46 33.5442 35.0521 33.3119ZM24.9692 47.2599C21.0244 45.579 18.4735 43.372 18.4735 41.6228C18.4735 39.8736 21.0244 37.6552 24.9692 35.9858C25.9258 35.5735 26.9735 35.2045 28.0553 34.8606C28.6908 37.0426 29.5266 39.3156 30.5607 41.6456C29.5844 43.837 28.7588 46.0925 28.0895 48.3964C27.0314 48.0688 25.9901 47.6895 24.9692 47.2599V47.2599ZM30.9638 63.1803C29.4492 62.3148 28.791 59.0031 29.3034 54.7486C29.4264 53.7009 29.6269 52.5963 29.8728 51.4711C32.0548 52.0064 34.4394 52.4186 36.947 52.6874C38.3664 54.6454 39.9148 56.5065 41.582 58.2584C37.9492 61.6338 34.5396 63.4832 32.221 63.4832C31.7836 63.4879 31.3518 63.3847 30.9638 63.1825V63.1803ZM57.393 54.6917C57.9169 58.9485 57.27 62.2578 55.7645 63.137C55.432 63.3374 54.997 63.4262 54.4845 63.4262C52.1773 63.4262 48.7564 61.5882 45.1236 58.2333C46.6838 56.598 48.2439 54.7372 49.7266 52.676C52.1139 52.4314 54.4815 52.022 56.8122 51.4506C57.0696 52.5758 57.2678 53.6553 57.393 54.6917V54.6917ZM61.6817 47.2599C60.7251 47.6721 59.6775 48.0411 58.5956 48.385C57.9145 46.0694 57.0775 43.8026 56.0902 41.6C57.1152 39.2837 57.9374 37.0221 58.5614 34.8492C59.6661 35.1932 60.7115 35.5735 61.6931 35.9858C65.6379 37.6666 68.1888 39.8736 68.1888 41.6228C68.1774 43.372 65.6265 45.5904 61.6817 47.2599V47.2599Z" fill="#F5F5F5"/>
<path d="M43.3198 46.7156C44.6704 46.7156 45.9658 46.179 46.9208 45.2239C47.8759 44.2689 48.4125 42.9735 48.4125 41.6229C48.4125 40.2722 47.8759 38.9768 46.9208 38.0218C45.9658 37.0667 44.6704 36.5302 43.3198 36.5302C41.9691 36.5302 40.6737 37.0667 39.7187 38.0218C38.7636 38.9768 38.2271 40.2722 38.2271 41.6229C38.2271 42.9735 38.7636 44.2689 39.7187 45.2239C40.6737 46.179 41.9691 46.7156 43.3198 46.7156V46.7156Z" fill="#F5F5F5"/>
</g>
<defs>
<clipPath id="clip0_3_151">
<rect width="54.6623" height="54.6623" fill="white" transform="translate(16 15)"/>
</clipPath>
</defs>
</svg>
