<svg width="245" height="249" viewBox="0 0 245 249" fill="none" xmlns="http://www.w3.org/2000/svg">
<path d="M96.6244 15.627C90.185 -1.12737 58.3272 -9.40098 63.5844 23.9584C64.4464 29.4282 64.5331 38.8467 63.5844 50.311C62.7153 60.813 45.702 66.5594 40.4795 80.129C32.2891 101.41 62.9125 116.243 58.0392 127.431C51.6564 142.083 32.1126 148.44 21.3024 156.457C11.1257 164.003 4.64352 176.112 2.15458 188.561C-2.21194 210.401 5.71223 233.289 27.5408 234.428C38.468 234.998 52.8796 230.118 70.9779 216.927C79.0698 211.03 86.2051 206.17 92.5465 202.24C108.868 192.125 104.48 216.051 123.888 216.927C134.947 217.427 146.497 196.772 155.241 207.79C161.458 215.624 168.592 225.129 178.781 234.901C196.674 252.063 219.045 254.59 222.209 230.097C223.703 218.534 220.917 200.951 211.359 176.043C205.242 160.104 220.456 160.666 222.209 140.24C223.962 119.814 209.628 110.394 220.005 101.941L220.213 101.771C228.122 95.3284 236.557 88.4568 241.164 75.2585C245.132 63.8894 244.753 52.6291 241.164 43.9767C237.323 34.7167 229.805 28.4437 220.005 28.2212C210.171 27.9979 198.04 33.866 185.019 48.9201C176.434 58.8455 170.621 35.7506 155.241 38.1114C139.861 40.4723 137.723 62.756 128.509 56.2928C112.504 45.0658 104.166 35.2493 96.6244 15.627Z" stroke="#F5F5F5" stroke-width="1.19883"/>
<path d="M127.69 107.018C126.71 104.446 122.143 105.121 121.912 107.909C121.649 111.082 123.253 115.218 123.068 118.4C122.71 124.542 120.54 126.291 116.219 129.528C114.67 130.687 113.684 132.546 113.305 134.457C112.64 137.81 113.846 141.323 117.168 141.498C118.831 141.586 121.024 140.836 123.779 138.812C125.01 137.906 126.096 137.16 127.061 136.557C131.262 133.72 135.172 135.943 136.602 137.409C137.548 138.611 138.634 140.071 140.185 141.571C142.908 144.206 147.031 143.86 146.794 140.833C146.458 136.557 139.157 120.594 146.794 117.811C150.341 116.518 150.225 113.589 149.679 112.261C149.094 110.839 147.95 109.876 146.458 109.842C144.962 109.808 142.483 112.261 141.134 113.02C136.155 115.821 131.713 117.269 127.69 107.018Z" stroke="#F5F5F5" stroke-width="1.19883"/>
<path d="M68.9111 31.257C64.2453 0.888324 93.358 8.4586 99.2617 23.818C106.49 42.5958 114.48 51.3964 129.496 61.3581C137.94 67.2042 139.972 46.8576 154.055 44.6462C168.138 42.4347 173.518 63.3923 181.397 54.3635C193.38 40.6702 204.522 35.4181 213.522 35.7495C222.464 36.0119 229.32 41.8152 232.783 50.3358C236.018 58.3035 236.285 68.6436 232.513 79.0457C227.59 91.4102 220.48 99.1064 213.26 105.399C203.829 113.227 216.783 121.873 215.066 140.469C213.349 159.065 199.351 158.502 204.792 172.885C213.348 195.411 215.784 211.277 214.339 221.689C211.395 243.907 190.918 241.525 174.485 225.876C165.062 216.95 158.386 208.316 152.538 201.316C144.495 191.347 133.887 210.206 123.713 209.834C105.928 209.127 109.809 187.422 94.8577 196.664C88.9877 200.278 82.4078 204.715 74.9696 210.076C58.2001 222.061 44.9777 226.184 35.0957 225.363C15.2517 224.241 8.07272 203.332 12.0901 183.384C14.399 171.982 20.3547 160.897 29.6846 153.979C39.9136 146.393 57.8934 140.451 63.7335 126.566C68.1761 116.244 40.2802 102.584 47.7011 83.0566C52.4216 70.5457 67.8711 65.1527 68.6738 55.4546C69.5476 44.8984 69.5778 36.2511 68.9111 31.257Z" stroke="#F5F5F5" stroke-width="1.19883"/>
<path d="M74.4767 38.863C70.4092 11.5847 96.7344 18.4268 102.094 32.3407C108.997 50.2104 116.629 57.9665 130.633 66.6308C138.296 71.8407 140.22 53.4981 152.984 51.4435C165.749 49.3888 170.688 68.1405 177.85 60.0379C188.777 47.7501 198.914 43.1312 207.068 43.5694C215.139 43.8707 221.321 49.1851 224.402 56.9381C227.277 64.1948 227.431 73.5806 223.861 82.9815C218.669 94.3555 213.005 102.844 206.544 108.915C198.073 116.092 209.628 123.936 207.949 140.641C206.27 157.346 193.508 156.784 198.266 169.564C205.807 189.635 207.89 203.732 206.495 212.958C203.775 232.829 185.224 230.599 170.274 216.515C161.63 208.465 155.422 200.73 149.952 194.588C142.621 185.699 132.97 202.701 123.696 202.456C107.561 201.922 110.928 182.508 97.3697 190.846C91.9797 194.132 85.9647 198.131 79.1911 202.939C63.775 213.68 51.761 217.033 42.9388 215.964C25.1083 214.862 18.6851 196.001 22.3474 178.012C24.473 167.693 29.8934 157.668 38.363 151.401C47.9959 144.272 64.3854 138.766 69.6743 125.694C73.6796 116.272 48.5522 103.829 55.1927 86.1205C59.4042 74.7097 73.2673 69.688 74.0025 60.8259C74.8 51.2127 74.9471 43.3652 74.4767 38.863Z" stroke="#F5F5F5" stroke-width="1.19883"/>
<path d="M79.8017 46.162C76.3263 21.8745 99.9045 28.0132 104.728 40.5322C111.318 57.5569 118.603 64.2971 131.617 71.6962C138.511 76.289 140.328 59.8836 151.795 57.9784C163.261 56.0731 167.766 72.6875 174.222 65.4816C184.111 54.5545 193.258 50.5517 200.579 51.098C207.79 51.4391 213.31 56.2837 216.013 63.2972C218.532 69.8693 218.574 78.3347 215.2 86.7687C209.731 97.193 205.503 106.501 199.791 112.373C192.267 118.923 202.44 125.994 200.798 140.869C199.155 155.745 187.608 155.182 191.691 166.405C198.228 184.095 199.96 196.474 198.614 204.549C196.115 222.145 179.459 220.06 165.97 207.489C158.091 200.285 152.342 193.421 147.242 188.113C140.611 180.273 131.903 195.479 123.514 195.361C109.005 194.998 111.862 177.804 99.6761 185.268C94.7577 188.239 89.2985 191.814 83.1788 196.087C69.0923 205.622 58.2682 208.218 50.4922 206.898C34.6478 205.812 28.9704 188.931 32.2833 172.835C34.2289 163.562 39.1225 154.561 46.7448 148.923C55.7966 142.224 70.6212 137.133 75.3671 124.829C78.9412 116.272 56.5436 105.002 62.4139 89.0481C66.1229 78.6962 78.4209 74.0278 79.0897 65.9697C79.8121 57.2647 80.0765 50.1885 79.8017 46.162Z" stroke="#F5F5F5" stroke-width="1.19883"/>
<path d="M85.3648 53.4606C82.4877 32.1649 103.277 37.6 107.555 48.7238C113.821 64.9051 120.746 70.6287 132.747 76.7618C138.859 80.7372 140.568 66.2695 150.716 64.5137C160.864 62.7578 164.927 77.234 170.665 70.9251C179.499 61.3591 187.639 57.9727 194.113 58.6274C200.453 59.0084 205.3 63.3834 207.62 69.6573C209.779 75.5447 209.709 83.0897 206.537 90.5565C200.8 100.031 198.016 110.162 193.064 115.835C186.5 121.759 195.274 128.057 193.67 141.101C192.065 154.146 181.756 153.582 185.155 163.249C190.677 178.556 192.056 189.217 190.761 196.14C188.486 211.46 173.756 209.52 161.751 198.462C154.652 192.105 149.372 186.113 144.649 181.64C138.731 174.847 130.982 188.258 123.492 188.267C110.634 188.074 112.978 173.102 102.185 179.692C97.747 182.347 92.8531 185.499 87.3983 189.236C74.6663 197.565 65.0513 199.403 58.3353 197.831C44.5052 196.762 39.5838 181.86 42.5414 167.658C44.3036 159.431 48.6615 151.455 55.423 146.445C63.8778 140.177 77.1113 135.501 81.3056 123.964C84.4423 116.272 64.8144 106.175 69.904 91.9753C73.1039 82.6822 83.8148 78.3671 84.4161 71.1129C85.0622 63.3161 85.4433 57.0114 85.3648 53.4606Z" stroke="#F5F5F5" stroke-width="1.19883"/>
<path d="M90.9255 61.1028C88.6465 42.8464 106.646 47.5659 110.38 57.2696C116.319 72.5706 122.883 77.2651 133.871 82.1186C139.201 85.4678 140.801 72.9701 149.63 71.3676C158.458 69.765 162.08 82.0709 167.1 76.6729C174.877 68.4895 182.011 65.727 187.638 66.4885C193.106 66.9086 197.28 70.8041 199.217 76.3244C201.017 81.5138 200.834 88.1215 197.865 94.6043C191.863 103.108 190.521 114.038 186.328 119.499C180.724 124.784 188.099 130.294 186.534 141.479C184.968 152.665 175.896 152.101 178.612 160.189C183.119 173.079 184.145 181.999 182.901 187.754C180.851 200.764 168.047 198.973 157.528 189.453C151.209 183.958 146.398 178.85 142.054 175.222C136.848 169.493 130.057 181.078 123.468 181.214C112.261 181.192 114.092 168.474 104.693 174.176C100.735 176.509 96.407 179.231 91.6174 182.423C80.2406 189.528 71.8352 190.604 66.1791 188.785C54.3634 187.734 50.1979 174.845 52.8001 162.568C54.3786 155.406 58.2009 148.472 64.1013 144.101C71.9579 138.278 83.5995 134.029 87.2423 123.284C89.9415 116.475 73.0834 107.573 77.3924 95.1597C80.0832 86.9463 89.2072 82.9941 89.7408 76.5602C90.3106 69.6891 90.8081 64.1699 90.9255 61.1028Z" stroke="#F5F5F5" stroke-width="1.19883"/>
<path d="M96.2453 68.4015C94.5596 53.1384 109.807 57.154 113.004 65.462C118.629 79.9211 124.846 83.5983 134.843 87.1845C139.402 89.916 140.897 79.3569 148.425 77.9036C155.953 76.4503 159.14 86.6168 163.453 82.1163C170.19 75.2948 176.332 73.1492 181.124 74.0194C185.731 74.4796 189.241 77.9053 190.8 82.6859C192.243 87.1903 191.948 92.8773 189.175 98.3926C182.894 105.947 182.992 117.703 179.55 122.965C174.895 127.625 180.885 132.361 179.356 141.715C177.826 151.069 169.972 150.504 172.011 157.034C175.513 167.54 176.188 174.74 174.992 179.343C173.162 190.076 162.258 188.429 153.201 180.424C147.649 175.775 143.298 171.54 139.323 168.747C134.82 164.067 128.973 173.856 123.271 174.118C113.691 174.267 115.013 163.771 106.988 168.6C103.503 170.617 99.7311 172.915 95.5967 175.571C85.5516 181.47 78.3381 181.787 73.7302 179.715C63.9044 178.681 60.4862 167.772 62.7384 157.389C64.1366 151.274 67.431 145.365 72.4826 141.622C79.7576 136.229 89.8316 132.395 92.9303 122.416C95.1976 116.473 81.0743 108.744 84.6117 98.0861C86.799 90.9318 94.355 87.3327 94.8221 81.7028C95.3167 75.7402 95.9318 70.9926 96.2453 68.4015Z" stroke="#F5F5F5" stroke-width="1.19883"/>
<path d="M101.799 75.6997C100.711 63.4322 113.167 66.7437 115.818 73.6553C121.114 87.2753 126.967 89.9339 135.946 92.2509C139.722 94.3639 141.107 85.7446 147.315 84.4405C153.523 83.1364 156.266 91.1616 159.861 87.5593C165.539 82.1007 170.674 80.573 174.618 81.5524C178.352 82.053 181.189 85.009 182.365 89.0496C183.449 92.8689 183.041 97.6349 180.472 102.182C173.93 108.787 175.467 121.376 172.785 126.441C169.09 130.475 173.681 134.436 172.191 141.958C170.702 149.479 164.086 148.913 165.443 153.883C167.93 162.002 168.252 167.481 167.108 170.93C165.504 179.384 156.528 177.881 148.959 171.391C144.188 167.591 140.308 164.227 136.714 162.272C132.924 158.642 128.037 166.632 123.237 167.023C115.31 167.343 116.119 159.072 109.489 163.025C106.486 164.727 103.281 166.601 99.8125 168.72C91.1259 173.411 85.1235 172.968 81.5759 170.642C73.7657 169.624 71.1037 160.696 73 152.21C74.2141 147.142 76.972 142.257 81.1615 139.144C87.8351 134.18 96.3148 130.761 98.8613 121.546C100.691 116.469 89.3395 109.913 92.0959 101.011C93.774 94.9162 99.7421 91.6698 100.141 86.8441C100.56 81.7901 101.29 77.8146 101.799 75.6997Z" stroke="#F5F5F5" stroke-width="1.19883"/>
<path d="M107.197 82.9973C106.702 73.7293 116.433 76.3359 118.553 81.85C123.551 94.6354 129.074 96.2732 137.087 97.3176C140.1 98.8113 141.384 92.134 146.304 90.9788C151.225 89.8237 153.542 95.7045 156.437 93.0015C161.089 88.9078 165.243 87.9991 168.361 89.0888C171.243 89.6302 173.421 92.1163 174.22 95.4165C174.95 98.5505 174.428 102.395 172.048 105.973C165.204 111.629 168.193 125.06 166.257 129.93C163.503 133.338 166.718 136.525 165.259 142.211C163.801 147.897 158.388 147.329 159.069 150.736C160.553 156.465 160.524 160.22 159.425 162.513C158.037 168.683 150.94 167.325 144.817 162.352C140.802 159.4 137.37 156.911 134.136 155.794C131.039 153.216 127.085 159.407 123.16 159.925C116.844 160.418 117.143 154.374 111.873 157.452L111.727 157.531C109.233 158.893 106.624 160.317 103.857 161.869C96.4803 165.351 91.6563 164.144 89.1505 161.562C83.3146 160.559 81.3949 153.615 82.9457 147.027C83.9826 143.007 86.219 139.148 89.5692 136.665C95.68 132.129 102.612 129.125 104.62 120.672C106.021 116.461 97.3815 111.079 99.3714 103.934C100.549 98.8987 104.961 96.0044 105.295 91.9831C105.638 87.8383 106.49 84.6353 107.197 82.9973Z" stroke="#F5F5F5" stroke-width="1.19883"/>
<path d="M112.738 90.6489C112.84 84.4212 119.77 86.3114 121.342 90.4036C126.005 102.296 131.157 102.907 138.142 102.674C140.37 103.542 141.542 98.8362 145.137 97.8353C148.733 96.8344 150.604 100.545 152.778 98.7532C156.367 96.0422 159.51 95.7565 161.777 96.9513C163.783 97.531 165.286 99.5363 165.701 102.081C166.071 104.516 165.438 107.421 163.265 110.015C156.171 114.697 160.591 128.908 159.416 133.561C157.626 136.328 159.438 138.726 158.022 142.552C156.605 146.377 152.437 145.811 152.436 147.641C152.905 150.954 152.524 152.968 151.478 154.095C150.317 157.956 145.156 156.748 140.525 153.313C137.296 151.224 134.339 149.619 131.489 149.345C129.109 147.831 126.12 152.194 123.1 152.838C118.443 153.501 118.229 149.711 114.36 151.9C112.306 152.964 110.219 153.982 108.067 155.02C102.057 157.277 98.4483 155.312 97.0044 152.486C93.1888 151.503 92.0267 146.574 93.2199 141.912C94.0716 138.959 95.7693 136.143 98.2541 134.3C103.756 130.213 109.087 127.637 110.541 119.984C111.503 116.657 105.642 112.474 106.85 107.118C107.518 103.165 110.338 100.635 110.604 97.4364C110.871 94.2192 111.837 91.8029 112.738 90.6489Z" stroke="#F5F5F5" stroke-width="1.19883"/>
<path d="M118.36 97.9567C119.057 94.7473 123.208 95.9271 124.237 98.6099C128.572 109.637 133.361 109.224 139.333 107.719C140.781 107.964 141.844 105.214 144.125 104.365C146.407 103.516 147.836 105.07 149.295 104.183C151.831 102.845 153.97 103.18 155.394 104.482C156.531 105.101 157.364 106.631 157.399 108.429C157.411 110.171 156.667 112.146 154.697 113.763C147.344 117.483 153.195 132.501 152.776 136.947C151.941 139.081 152.361 140.697 150.984 142.676C149.608 144.655 146.673 144.088 145.993 144.35C145.453 145.261 144.721 145.544 143.726 145.511C142.79 147.077 139.548 146.016 136.397 144.109C133.946 142.874 131.458 142.148 128.987 142.715C127.318 142.257 125.284 144.808 123.162 145.579C120.15 146.412 119.426 144.862 116.946 146.169C115.371 146.913 113.848 147.504 112.359 148.001C107.701 149.043 105.298 146.318 104.909 143.243C103.1 142.278 102.69 139.347 103.529 136.597C104.197 134.7 105.361 132.919 106.988 131.71C111.891 128.062 115.634 125.908 116.539 119.037C117.065 116.586 113.963 113.588 114.394 110.004C114.555 107.122 115.795 104.952 115.993 102.566C116.184 100.267 117.265 98.6304 118.36 97.9567Z" stroke="#F5F5F5" stroke-width="1.19883"/>
</svg>
